<mxfile host="app.diagrams.net" modified="2023-06-26T09:01:37.583Z" agent="Mozilla/5.0 (Windows NT 10.0; Win64; x64) AppleWebKit/537.36 (KHTML, like Gecko) Chrome/114.0.0.0 Safari/537.36" version="21.5.0" etag="DUcHfvDjy0QmegV8PoUp" type="github">
  <diagram name="Сторінка-1" id="4nsPiJMsG7fjH1k0Aepe">
    <mxGraphModel>
      <root>
        <mxCell id="0" />
        <mxCell id="1" parent="0" />
      </root>
    </mxGraphModel>
  </diagram>
</mxfile>
